<?xml version="1.0" encoding="utf-8"?>
<!-- Svg Vector Icons : http://www.onlinewebfonts.com/icon -->
<!DOCTYPE svg PUBLIC "-//W3C//DTD SVG 1.1//EN" "http://www.w3.org/Graphics/SVG/1.1/DTD/svg11.dtd">
<svg version="1.1" xmlns="http://www.w3.org/2000/svg" xmlns:xlink="http://www.w3.org/1999/xlink" x="0px" y="0px" viewBox="0 0 1000 1000" enable-background="new 0 0 1000 1000" xml:space="preserve">
<metadata> Svg Vector Icons : http://www.onlinewebfonts.com/icon </metadata>
<g><path d="M324.9,850c-38.6,0-69.8,31.3-69.8,70s31.2,69.9,69.8,69.9s69.9-31.3,69.9-70S363.5,850,324.9,850L324.9,850L324.9,850z M814,850c-38.6,0-69.9,31.3-69.9,70S775.4,990,814,990c38.6,0,69.9-31.3,69.9-70S852.6,850,814,850L814,850L814,850z M883.3,815.1H315.9c-50.3,0-94.6-39.9-100.8-90.8l-59.2-418L122.2,111C120.1,94,104.6,80,89.4,80H44.9C25.6,80,10,64.3,10,45s15.6-35,34.9-35h44.5c51,0,95.7,39.9,101.9,90.8l33.6,194.6l59.5,419.7c2,16.3,16.6,30,31.4,30h567.4c19.3,0,34.9,15.7,34.9,35C918.2,799.4,902.6,815.1,883.3,815.1L883.3,815.1z M359.6,675c-18.1,0-33.4-14-34.8-32.4c-1.4-19.2,13-36.1,32.3-37.4l473.8-35c17.4-0.1,32.2-13.8,34.1-29.4l55-315.4c1.3-11.8-1.9-24.7-8.9-32.6c-4.5-5.1-10.2-7.7-16.7-7.7H289.5c-19.2,0-34.9-15.7-34.9-35c0-19.3,15.7-35,34.9-35h604.9c26.7,0,51.1,11.1,69,31.3c20.5,23,29.8,55.6,25.7,89.3l-55,315.4c-5.9,49.1-50.2,88.9-100.6,88.9l-471.2,34.9C361.3,675,360.4,675,359.6,675L359.6,675z"/></g>
</svg>