<?xml version="1.0" encoding="utf-8"?>
<!-- Svg Vector Icons : http://www.onlinewebfonts.com/icon -->
<!DOCTYPE svg PUBLIC "-//W3C//DTD SVG 1.1//EN" "http://www.w3.org/Graphics/SVG/1.1/DTD/svg11.dtd">
<svg version="1.1" xmlns="http://www.w3.org/2000/svg" xmlns:xlink="http://www.w3.org/1999/xlink" x="0px" y="0px" viewBox="0 0 1000 1000" enable-background="new 0 0 1000 1000" xml:space="preserve">
<metadata> Svg Vector Icons : http://www.onlinewebfonts.com/icon </metadata>
<g><g transform="translate(0.000000,511.000000) scale(0.100000,-0.100000)"><path d="M1065.1,2517.1V20.3L931.6-51.1c-377.4-200.2-692.7-591.4-798.5-989.5c-43.7-161.1-43.7-481-2.3-639.7c105.9-398.1,448.7-819.2,821.5-1007.9l112.8-55.2v-1024v-1024.1h494.8h494.8v1024.1v1024l110.5,55.2c168,85.1,375.1,246.2,492.5,384.3c499.4,586.8,499.4,1293.3,2.3,1880.1c-122,142.7-317.6,296.9-483.3,382l-122,59.8v2496.8v2496.8h-494.8h-494.8V2517.1z M1773.9-923.3c317.6-163.4,375.1-570.7,112.8-800.8c-315.3-276.1-810-55.2-807.7,361.3c0,200.2,108.1,370.5,285.4,446.4C1479.3-865.7,1670.3-870.3,1773.9-923.3z"/><path d="M4516.9,3992.2V2972.7l-85.1-41.4C4059,2754.1,3723,2365.2,3582.6,1951c-59.8-174.9-59.8-561.5,0-736.4C3723,800.4,4059,411.5,4431.8,234.3l85.1-41.4v-2492.2v-2492.2h483.3h483.3v2492.2V192.9l87.5,41.4c370.5,177.2,706.5,566.1,846.8,980.3c59.8,174.9,59.8,561.5,0,736.4c-140.4,414.2-476.3,803.1-846.8,980.3l-87.5,41.4v1019.5v1019.4h-483.3h-483.3V3992.2z M5228,2013.1c55.2-27.6,131.2-96.7,172.6-151.9c64.4-89.7,71.3-112.8,71.3-276.1c0-156.5-6.9-188.7-62.1-269.2c-34.5-48.3-101.2-115.1-149.6-147.3c-71.3-48.3-110.4-57.5-260-57.5s-188.7,9.2-260,57.5c-48.3,32.2-115.1,99-149.6,147.3c-55.2,80.5-62.1,112.8-62.1,269.2c0,161.1,6.9,186.4,69,276.1C4737.9,2059.2,5016.3,2125.9,5228,2013.1z"/><path d="M7945.8,2275.5V-460.7l-142.7-82.9c-292.3-163.4-524.7-400.4-672-681.2c-119.6-227.8-161.1-393.5-161.1-644.3c2.3-246.2,62.1-453.3,197.9-685.8c112.7-193.3,434.9-506.3,623.6-602.9l154.2-80.5v-775.5v-777.8h494.8h494.8v777.8v775.5l138.1,75.9c382,209.4,690.4,596,793.9,996.4c57.5,216.3,36.8,554.6-43.7,766.3c-78.2,207.1-232.4,432.6-398.1,593.7c-140.4,131.2-345.2,276.2-437.2,303.8l-52.9,16.1v2750v2747.7h-494.8h-494.8V2275.5z M8656.9-1422.6c303.7-151.9,361.3-527,117.4-768.6c-241.6-243.9-616.7-186.4-768.6,117.3c-98.9,202.5-69,405,89.8,561.5C8251.8-1353.6,8454.3-1321.4,8656.9-1422.6z"/></g></g>
</svg>