<svg xmlns="http://www.w3.org/2000/svg" viewBox="0 0 1136 1576"><defs><style>.cls-1{fill:#ccc;}.cls-2{fill:#666;}</style></defs><title>product</title><g id="Layer_2" data-name="Layer 2"><rect class="cls-1" width="1136" height="1576"/><rect class="cls-1" width="1136" height="1576"/></g><g id="Layer_1" data-name="Layer 1"><path class="cls-2" d="M568,290.65,78.9,538.85H78v497.8l490,248.7,490-248.7V539.25Zm0,60.2,368.5,187.5-140.3,71.8L425.9,423.25Zm-30.6,856.7-398.1-202V602.32a4,4,0,0,1,0-.44,1.15,1.15,0,0,1,0-.15,1.09,1.09,0,0,1,0-.28h0v-31.1l398.1,202ZM199.6,539.25l162.1-80.8,375,183.4-168.7,83Zm797.2,466.3-398.1,202V772.45l398.1-202v435.1Z"/></g></svg>