<?xml version="1.0" encoding="utf-8"?>
<!-- Generator: Adobe Illustrator 21.0.0, SVG Export Plug-In . SVG Version: 6.00 Build 0)  -->
<svg version="1.1" id="Layer_1" xmlns="http://www.w3.org/2000/svg" xmlns:xlink="http://www.w3.org/1999/xlink" x="0px" y="0px"
	 viewBox="0 0 1000 1000" style="enable-background:new 0 0 1000 1000;" xml:space="preserve">
<style type="text/css">
	.st0{fill:#777777;}
</style>
<g>
	<g transform="translate(0.000000,512.000000) scale(0.100000,-0.100000)">
		<path class="st0" d="M4622.6,5016.9c-693.8-70.9-1213.2-214.7-1782.4-494.5c-500.2-245.3-856.7-498.3-1263-891.2
			c-417.8-408.2-722.6-828-981.3-1353.1c-241.5-494.5-389.1-979.4-471.5-1552.4c-32.6-226.2-32.6-981.3,0-1207.5
			c136.1-950.6,504.1-1803.5,1082.9-2506.9c1353.1-1642.5,3595.5-2229,5571.5-1458.5C8043.7-3952.7,9071-2923.5,9569.3-1650.9
			C9772.5-1127.7,9876-625.6,9897-41c46,1326.3-446.6,2604.6-1374.2,3562.9c-421.7,435.1-833.7,736-1370.4,998.5
			c-483,237.7-927.6,377.6-1466.2,460C5492.8,5009.2,4789.4,5034.1,4622.6,5016.9z M5638.4,4675.7
			c994.7-147.6,1908.9-605.6,2608.4-1307.1c724.5-728.3,1169.1-1631,1314.8-2671.7c36.4-266.4,30.7-952.6-9.6-1217
			c-118.8-772.4-417.8-1496.8-866.3-2096.7c-74.8-101.6-176.3-226.2-226.2-279.8l-88.2-95.8l-21.1,63.2
			c-103.5,289.4-316.2,619.1-569.2,885.5c-529,555.8-1218.9,893.1-2104.4,1027.3c-322,49.8-1038.8,49.8-1360.8,0
			c-833.7-126.5-1475.8-421.6-1997.1-918C2209.7-2040,2064-2201,1995-2291.1c-115-155.3-297.1-483-350.7-634.4l-23-67.1l-88.2,95.8
			c-49.8,53.7-151.4,178.2-226.2,279.8C421.5-1432.4,164.7,120,618.9,1526.8c458,1412.5,1562,2516.5,2976.4,2972.6
			c322,105.4,594.1,159.1,1056,210.8C4791.3,4725.5,5454.4,4702.5,5638.4,4675.7z"/>
		<path class="st0" d="M4651.4,3228.7c-197.4-42.2-385.2-115-565.4-220.4c-185.9-109.2-473.4-398.7-588.4-596.1
			c-341.1-580.7-322-1295.6,53.7-1861c329.6-498.3,918-795.4,1512.2-768.6c268.3,13.4,465.7,65.2,709.1,184
			c341.1,168.7,609.5,437,778.1,778.1c141.8,287.5,176.3,440.8,176.3,776.2c0,327.7-34.5,483-166.7,757
			C6213.4,2994.9,5419.9,3389.7,4651.4,3228.7z"/>
	</g>
</g>
</svg>
